Coordinates
version=1
nRows=10
nColumns=34
inDegrees=yes

Units are S.I. units (second, meters, Newtons, ...)
Angles are in degrees.

endheader
time	pelvis_tilt	pelvis_list	pelvis_rotation	pelvis_tx	pelvis_ty	pelvis_tz	hip_flexion_r	hip_adduction_r	hip_rotation_r	knee_angle_r	ankle_angle_r	subtalar_angle_r	mtp_angle_r	hip_flexion_l	hip_adduction_l	hip_rotation_l	knee_angle_l	socket_flexion	socket_adduction	socket_rotation	socket_tx	socket_ty	socket_tz	pros_ankle_rx	pros_ankle_ry	pros_ankle_rz	pros_ankle_tx	pros_ankle_ty	pros_ankle_tz	foot_flex	lumbar_extension	lumbar_bending	lumbar_rotation
      0.29583333	      2.13680965	     -5.84779009	     -1.12491410	     -0.36309992	      1.04946705	      0.37593351	      8.27352897	      3.44025694	     -7.51805811	    -61.58015239	     -0.58581211	      3.39132636	     15.52909292	      6.23659141	     -7.19487631	     -9.18754188	    -16.87641449	      1.97293978	      0.34238973	      7.24245456	      0.00000000	     -0.02415699	      0.00000000	      0.00000000	      0.00000000	      0.00000000	      0.00000000	      0.00000000	      0.00000000	      5.61510438	    -12.50363699	     -4.81812070	    -18.97050119
      0.30000000	      2.22090289	     -5.96984845	     -1.06413024	     -0.35759105	      1.05027323	      0.37559767	      8.71091303	      3.53895456	     -7.69410101	    -61.36228002	      0.19710514	      3.45249540	     15.55880117	      5.73226618	     -7.29282045	     -9.28163745	    -16.74682168	      1.94029991	      0.31774864	      7.28321171	      0.00000000	     -0.02402638	      0.00000000	      0.00000000	      0.00000000	      0.00000000	      0.00000000	      0.00000000	      0.00000000	      5.79939270	    -12.53824588	     -4.66779775	    -19.09474857
      0.30416667	      2.29778318	     -6.10099330	     -0.99673995	     -0.35207264	      1.05111700	      0.37525052	      9.13372436	      3.66320418	     -7.83838933	    -61.07568126	      1.07911894	      3.55990985	     15.59132984	      5.21867454	     -7.40109243	     -9.34146263	    -16.57383886	      1.92993777	      0.28655566	      7.38037699	      0.00000000	     -0.02386820	      0.00000000	      0.00000000	      0.00000000	      0.00000000	      0.00000000	      0.00000000	      0.00000000	      5.95050474	    -12.57229219	     -4.45632927	    -19.24143198
      0.30833333	      2.36954772	     -6.22610270	     -0.93020193	     -0.34658876	      1.05191002	      0.37489263	      9.55348407	      3.78009823	     -7.99036183	    -60.74211581	      1.87163868	      3.70034704	     15.60973640	      4.71366847	     -7.50010275	     -9.40692657	    -16.39821650	      1.92600382	      0.25119721	      7.45446635	      0.00000000	     -0.02371589	      0.00000000	      0.00000000	      0.00000000	      0.00000000	      0.00000000	      0.00000000	      0.00000000	      6.10897843	    -12.59530058	     -4.26707755	    -19.38360101
      0.31250000	      2.42498793	     -6.33431412	     -0.87039295	     -0.34112234	      1.05273501	      0.37455341	      9.97442650	      3.86957612	     -8.15497659	    -60.33320865	      2.54046880	      3.82012649	     15.61734058	      4.23709437	     -7.58197069	     -9.47865257	    -16.24569760	      1.90263377	      0.22627661	      7.48579058	      0.00000000	     -0.02344296	      0.00000000	      0.00000000	      0.00000000	      0.00000000	      0.00000000	      0.00000000	      0.00000000	      6.24341029	    -12.62932480	     -4.09489704	    -19.49888978
      0.31666667	      2.75977319	     -6.32624300	     -0.80589338	     -0.33544904	      1.05396651	      0.37399041	     10.05692187	      3.72621687	     -8.40769396	    -59.92418969	      3.58440549	      4.75094681	     15.15365079	      3.15203672	     -7.45557801	     -9.48230709	    -15.27260593	      2.34865132	      0.25616739	      7.47454154	      0.00000000	     -0.02341272	      0.00000000	      0.00000000	      0.00000000	      0.00000000	      0.00000000	      0.00000000	      0.00000000	      6.29048749	    -12.96575546	     -3.97397174	    -19.73571771
      0.32083333	      2.78073585	     -6.43496769	     -0.75012840	     -0.33014407	      1.05471483	      0.37375338	     10.51133233	      3.84333336	     -8.56083674	    -59.42517451	      4.04562156	      4.68702439	     15.15742050	      2.76126335	     -7.54476643	     -9.50365433	    -15.21117996	      2.30968535	      0.23167675	      7.44207952	      0.00000000	     -0.02305023	      0.00000000	      0.00000000	      0.00000000	      0.00000000	      0.00000000	      0.00000000	      0.00000000	      6.52865484	    -12.96136822	     -3.89929319	    -19.78935661
      0.32500000	      2.81314201	     -6.64702025	     -0.67565289	     -0.32473743	      1.05537411	      0.37339775	     10.91663990	      4.07420319	     -8.72478889	    -58.88311937	      4.85709311	      4.75523320	     15.12183771	      2.27113946	     -7.74448936	     -9.50913354	    -14.93586602	      2.35646329	      0.23982296	      7.51509656	      0.00000000	     -0.02306465	      0.00000000	      0.00000000	      0.00000000	      0.00000000	      0.00000000	      0.00000000	      0.00000000	      6.62554597	    -12.92272266	     -3.53179120	    -19.97146785
      0.32916667	      2.81857792	     -6.69526985	     -0.64128172	     -0.31947356	      1.05610751	      0.37313832	     11.36050207	      4.11453992	     -8.86659248	    -58.28866149	      5.16185376	      4.75954603	     15.10962879	      1.90816880	     -7.76121980	     -9.55273986	    -14.90365696	      2.28575187	      0.19148063	      7.47645466	      0.00000000	     -0.02255863	      0.00000000	      0.00000000	      0.00000000	      0.00000000	      0.00000000	      0.00000000	      0.00000000	      6.74712586	    -12.95762560	     -3.47162431	    -20.01202734
      0.33333333	      2.87856052	     -6.94736085	     -0.50325350	     -0.31397890	      1.05675097	      0.37270637	     11.67409628	      4.38245906	     -9.09737392	    -57.61991325	      6.05780653	      4.88663310	     15.05763916	      1.38966010	     -8.00990783	     -9.55839411	    -14.60695202	      2.35296486	      0.19388746	      7.62110970	      0.00000000	     -0.02261393	      0.00000000	      0.00000000	      0.00000000	      0.00000000	      0.00000000	      0.00000000	      0.00000000	      6.90009880	    -12.88118334	     -3.09471862	    -20.21094386
